<svg width="36" height="36" viewBox="0 0 36 36" fill="none" xmlns="http://www.w3.org/2000/svg">
<g clip-path="url(#clip0_12_30)">
<path d="M35.8717 25.9335C35.622 25.2518 35.145 24.8873 34.6027 24.5858C34.5129 24.5333 34.4205 24.4852 34.326 24.4417L33.8332 24.192C32.1412 23.2942 30.8205 22.1625 29.9047 20.8215C29.6443 20.4444 29.4184 20.0445 29.2297 19.6267C29.1532 19.4017 29.1577 19.2757 29.2117 19.161C29.2681 19.0717 29.3424 18.995 29.43 18.936C29.7202 18.7425 30.0195 18.5468 30.222 18.4163C30.5865 18.1823 30.8722 17.9955 31.0567 17.865C31.752 17.379 32.238 16.8615 32.5417 16.2855C32.7534 15.8871 32.8768 15.4478 32.9036 14.9974C32.9304 14.547 32.8599 14.0962 32.697 13.6755C32.2357 12.465 31.0927 11.7135 29.7067 11.7135C29.3366 11.7127 28.968 11.7619 28.611 11.8597C28.6245 11.0317 28.6065 10.1565 28.5322 9.297C28.2712 6.273 27.2115 4.689 26.109 3.4245C25.4022 2.63293 24.5698 1.96321 23.6452 1.44225C21.969 0.486 20.07 0 17.9977 0C15.9277 0 14.0377 0.486 12.3615 1.44225C11.4345 1.96425 10.602 2.63475 9.89324 3.429C8.79074 4.6935 7.73324 6.27975 7.46999 9.3015C7.39574 10.161 7.37999 11.0385 7.38899 11.862C7.03198 11.7642 6.66341 11.715 6.29324 11.7157C4.90949 11.7157 3.76424 12.4695 3.30524 13.68C3.14142 14.1007 3.07009 14.5518 3.0961 15.0025C3.12212 15.4533 3.24486 15.8932 3.45599 16.2923C3.76199 16.8683 4.24799 17.3857 4.94099 17.8695C5.12549 18 5.41349 18.1845 5.77574 18.423L6.53849 18.9203C6.63637 18.985 6.71985 19.0693 6.78374 19.1678C6.84224 19.287 6.84449 19.4153 6.75674 19.656C6.57067 20.0649 6.34854 20.4565 6.09299 20.826C5.19749 22.1377 3.91499 23.2492 2.27699 24.138C1.41074 24.597 0.508493 24.903 0.128243 25.938C-0.159757 26.721 0.0292434 27.6097 0.758243 28.3567C1.02599 28.638 1.33649 28.8743 1.67849 29.0543C2.3891 29.4446 3.14468 29.7469 3.92849 29.9542C4.0903 29.9957 4.24396 30.0642 4.38299 30.1567C4.64849 30.3907 4.61249 30.7417 4.96574 31.2547C5.14349 31.5202 5.37074 31.7497 5.63174 31.9297C6.37424 32.445 7.20899 32.4765 8.09549 32.5103C8.89424 32.5418 9.80099 32.5777 10.8337 32.9152C11.2612 33.0592 11.709 33.3337 12.2242 33.6532C13.4617 34.4137 15.1605 35.4577 17.9977 35.4577C20.8372 35.4577 22.5427 34.4093 23.7937 33.6443C24.3045 33.3293 24.7477 33.0592 25.164 32.922C26.199 32.58 27.1057 32.544 27.9045 32.5148C28.7887 32.481 29.6235 32.4472 30.3682 31.9342C30.6782 31.7174 30.9364 31.4346 31.1242 31.1062C31.3807 30.6742 31.3717 30.3705 31.6125 30.1612C31.743 30.0725 31.8875 30.0063 32.04 29.9655C32.8349 29.7574 33.6012 29.4521 34.3215 29.0565C34.6815 28.8607 35.01 28.6065 35.2867 28.3005L35.2957 28.2892C35.9797 27.558 36.1507 26.694 35.8717 25.9335V25.9335ZM33.3495 27.288C31.8105 28.1385 30.7867 28.0462 29.9902 28.5592C29.3152 28.9935 29.7157 29.9318 29.2252 30.2693C28.62 30.6878 26.838 30.2423 24.534 31.0028C22.6327 31.6305 21.42 33.4373 18.0022 33.4373C14.5845 33.4373 13.401 31.635 11.4682 30.9983C9.16874 30.2378 7.38224 30.6832 6.77924 30.267C6.28874 29.9295 6.68699 28.989 6.01199 28.5547C5.21549 28.0417 4.19174 28.134 2.65499 27.288C1.67399 26.748 2.22974 26.4105 2.55599 26.253C8.13149 23.5553 9.02024 19.3905 9.05849 19.08C9.10799 18.7065 9.15974 18.4117 8.74799 18.0315C8.34974 17.6625 6.58349 16.569 6.09299 16.227C5.28299 15.66 4.92299 15.0953 5.18849 14.4C5.37299 13.9185 5.82074 13.7363 6.29099 13.7363C6.44008 13.7369 6.58868 13.7535 6.73424 13.7857C7.62524 13.9792 8.48924 14.427 8.98874 14.5463C9.04949 14.562 9.11024 14.5687 9.17324 14.571C9.43874 14.571 9.53324 14.436 9.51524 14.1323C9.45674 13.158 9.31949 11.259 9.47249 9.48375C9.68399 7.04475 10.4715 5.83425 11.4052 4.7655C11.8552 4.25025 13.9635 2.0205 17.9977 2.0205C22.0297 2.0205 24.1447 4.24125 24.5925 4.75425C25.5285 5.823 26.316 7.0335 26.5252 9.47475C26.6782 11.2477 26.5455 13.1468 26.4825 14.121C26.46 14.4405 26.559 14.5598 26.8245 14.5598C26.8867 14.5596 26.9486 14.552 27.009 14.5372C27.5085 14.4157 28.3747 13.968 29.2635 13.7768C29.4089 13.7434 29.5576 13.7261 29.7067 13.725C30.1792 13.725 30.627 13.9095 30.8092 14.3887C31.0725 15.084 30.7192 15.6487 29.907 16.2157C29.4165 16.5577 27.6502 17.6512 27.252 18.0202C26.838 18.4005 26.892 18.6953 26.9392 19.0688C26.9797 19.3838 27.8685 23.5485 33.4417 26.244C33.7725 26.4082 34.3282 26.7435 33.3495 27.288V27.288Z" fill="#F5F5F5"/>
</g>
<defs>
<clipPath id="clip0_12_30">
<rect width="36" height="36" fill="white"/>
</clipPath>
</defs>
</svg>
