<svg width="36" height="36" viewBox="0 0 36 36" fill="none" xmlns="http://www.w3.org/2000/svg">
<path d="M35.4643 7.40562C34.2118 7.96062 32.8663 8.33562 31.4518 8.50512C32.9113 7.6318 34.0032 6.25731 34.5238 4.63812C33.1525 5.4526 31.6518 6.02591 30.0868 6.33312C29.0343 5.20941 27.6404 4.4646 26.1213 4.21433C24.6022 3.96405 23.0429 4.2223 21.6856 4.94899C20.3283 5.67569 19.2489 6.83016 18.615 8.23317C17.9811 9.63618 17.8281 11.2092 18.1798 12.7081C15.4013 12.5686 12.6832 11.8464 10.2019 10.5885C7.7206 9.33051 5.53154 7.56486 3.77677 5.40612C3.17677 6.44112 2.83177 7.64112 2.83177 8.91912C2.8311 10.0696 3.11442 11.2025 3.65659 12.2172C4.19876 13.2319 4.98302 14.0972 5.93977 14.7361C4.83019 14.7008 3.74508 14.401 2.77477 13.8616V13.9516C2.77466 15.5652 3.33282 17.1292 4.35455 18.3781C5.37627 19.627 6.79863 20.484 8.38027 20.8036C7.35095 21.0822 6.27178 21.1232 5.22427 20.9236C5.67052 22.312 6.53977 23.5262 7.71032 24.396C8.88088 25.2659 10.2941 25.7479 11.7523 25.7746C9.27702 27.7177 6.2201 28.7717 3.07327 28.7671C2.51584 28.7673 1.95889 28.7347 1.40527 28.6696C4.59949 30.7234 8.31778 31.8133 12.1153 31.8091C24.9703 31.8091 31.9978 21.1621 31.9978 11.9281C31.9978 11.6281 31.9903 11.3251 31.9768 11.0251C33.3437 10.0366 34.5236 8.81246 35.4613 7.41012L35.4643 7.40562V7.40562Z" fill="#F5F5F5"/>
</svg>
